<?xml version="1.0" standalone="no"?>
<!DOCTYPE svg PUBLIC "-//W3C//DTD SVG 20010904//EN"
 "http://www.w3.org/TR/2001/REC-SVG-20010904/DTD/svg10.dtd">
<svg version="1.0" xmlns="http://www.w3.org/2000/svg"
 width="1399.000000pt" height="1399.000000pt" viewBox="0 0 1399.000000 1399.000000"
 preserveAspectRatio="xMidYMid meet">
<metadata>
Created by potrace 1.14, written by Peter Selinger 2001-2017
</metadata>
<g transform="translate(0.000000,1399.000000) scale(0.100000,-0.100000)"
fill="#000000" stroke="none">
<path d="M9537 13984 c-1 -1 -30 -5 -65 -8 -71 -7 -178 -27 -297 -57 -44 -11
-87 -22 -95 -24 -8 -2 -67 -21 -130 -43 -380 -129 -765 -344 -1089 -610 -408
-334 -756 -818 -961 -1337 -57 -144 -131 -399 -145 -500 -3 -22 -10 -60 -15
-85 -41 -206 -27 -721 21 -750 18 -12 236 -3 389 16 36 5 265 55 305 67 6 2
37 11 70 21 316 94 683 297 994 551 368 300 722 801 922 1303 54 136 133 387
144 457 2 11 10 52 18 90 8 39 18 95 22 125 5 30 10 66 12 80 25 180 18 613
-12 697 -3 9 -79 15 -88 7z"/>
<path d="M4389 10726 c-2 -2 -40 -7 -84 -11 -540 -46 -1127 -276 -1620 -634
-399 -289 -733 -637 -1023 -1066 -138 -203 -183 -288 -317 -590 -122 -274
-260 -788 -300 -1115 -3 -25 -8 -56 -10 -70 -2 -14 -7 -59 -10 -99 -3 -41 -7
-89 -10 -105 -27 -217 -27 -929 0 -1146 2 -17 7 -69 10 -117 4 -48 8 -90 10
-93 2 -3 6 -39 10 -80 4 -41 9 -84 11 -95 2 -11 7 -40 10 -65 27 -227 146
-780 229 -1065 119 -408 264 -810 404 -1120 15 -33 38 -85 52 -115 50 -113
241 -496 256 -512 9 -10 13 -18 10 -18 -8 0 138 -259 248 -440 133 -218 342
-531 488 -730 67 -90 230 -302 252 -326 5 -7 19 -22 29 -35 126 -155 389 -425
521 -534 33 -28 62 -52 65 -55 17 -19 142 -109 241 -173 111 -72 352 -197 381
-197 8 0 18 -4 23 -9 23 -22 281 -86 395 -99 85 -9 347 -8 430 1 185 22 426
94 657 198 26 12 62 27 78 34 17 7 57 25 90 40 261 119 566 222 745 250 268
43 348 50 590 49 161 0 329 -8 390 -18 14 -3 43 -7 65 -10 258 -34 495 -111
880 -286 317 -144 460 -196 635 -231 123 -25 207 -33 360 -33 180 0 284 14
445 63 418 125 815 413 1261 913 320 358 823 1084 1151 1661 104 183 285 544
383 762 13 28 39 86 60 130 59 127 102 227 98 230 -2 1 -46 20 -98 40 -251
101 -554 279 -767 452 -138 112 -341 315 -438 438 -181 229 -307 442 -437 735
-90 203 -186 552 -213 776 -4 33 -9 68 -11 79 -24 131 -24 589 1 725 2 14 7
45 10 70 3 25 8 52 10 60 2 8 6 32 9 52 20 136 91 380 162 556 242 599 717
1145 1268 1459 37 21 76 42 87 48 10 5 19 13 19 17 0 14 -198 243 -297 343
-152 154 -234 229 -373 340 -337 269 -673 459 -1062 599 -144 52 -383 116
-483 131 -45 6 -121 18 -140 21 -97 20 -508 26 -680 11 -371 -32 -698 -114
-1190 -300 -459 -172 -636 -227 -845 -261 -152 -25 -452 -25 -585 -1 -283 52
-418 88 -725 195 -541 189 -744 255 -880 285 -8 2 -49 11 -90 20 -41 10 -85
18 -97 20 -12 2 -34 6 -50 9 -36 7 -76 13 -138 21 -27 3 -66 8 -85 11 -39 6
-466 15 -471 10z"/>
</g>
</svg>
